<svg id="Layer_1" data-name="Layer 1" xmlns="http://www.w3.org/2000/svg" xmlns:xlink="http://www.w3.org/1999/xlink" viewBox="0 0 560 288"><defs><style>.cls-1,.cls-11,.cls-15{fill:none;}.cls-2{clip-path:url(#clip-path);}.cls-3{fill:#b5b5b8;}.cls-4{fill:#58585a;}.cls-5{fill:#94959a;}.cls-6{fill:#545356;}.cls-7{fill:#d2d4d6;}.cls-8{fill:#d1d3d5;}.cls-9{fill:#010101;}.cls-10{fill:#bdbfc1;}.cls-11,.cls-15{stroke:#000;stroke-miterlimit:10;}.cls-11{stroke-width:0.57px;}.cls-12{fill:#c2c2c2;}.cls-13{fill:#f3f3f3;}.cls-14{fill:#f15a24;}.cls-15{stroke-width:1.14px;}</style><clipPath id="clip-path" transform="translate(0 0)"><rect class="cls-1" width="560" height="288"/></clipPath></defs><title>foothillslogo</title><g id="Artwork_10" data-name="Artwork 10"><g class="cls-2"><g class="cls-2"><path class="cls-3" d="M560,144c0,79.53-125.36,144-280,144S0,223.53,0,144,125.36,0,280,0,560,64.47,560,144" transform="translate(0 0)"/><path class="cls-4" d="M554.52,143.16c0,76.91-123,139.26-274.72,139.26S5.07,220.07,5.07,143.16,128.07,3.91,279.8,3.91,554.52,66.26,554.52,143.16" transform="translate(0 0)"/><path class="cls-5" d="M24.45,195.75l77.92-41.88a159,159,0,0,0,22.86-19,151.11,151.11,0,0,0,14.69-17.15q15.86,11.56,31.83,23.61,6.3,4.75,12.52,9.5L281,87.3c16.57,12,28.76,20.55,37.45,26.62,9,6.26,19.2,13.3,31.41,24.72,2.48,2.31,4.48,4.28,5.83,5.64l55.9-25.07c19.81,10.07,40.48,21.32,61.77,33.86,22.42,13.22,43.13,26.48,62.15,39.45a133.66,133.66,0,0,1-10,13C509.3,224.1,491,234.34,477.16,242a239.78,239.78,0,0,1-27,12.75c-3.61,1.43-13.17,5.12-37.28,11.56-9.57,2.56-24.12,6.45-39.22,9.5-10.36,2.09-46.66,8.82-95.12,8.74a473.9,473.9,0,0,1-86.37-8C151.48,268.81,82.86,255,32.8,204.67c-3.75-3.77-6.63-7-8.35-8.92" transform="translate(0 0)"/><path class="cls-5" d="M233.06,134.55a107.22,107.22,0,0,0,.73,16.43,110.06,110.06,0,0,0,6,24.76,26.34,26.34,0,0,1-9.62-9.28,22.82,22.82,0,0,1-3.21-11.32,31.88,31.88,0,0,1,.7-8.44,33.62,33.62,0,0,1,5.43-12.15" transform="translate(0 0)"/><polygon class="cls-6" points="286.46 193.05 395.36 173.29 435.83 149.74 467.54 175.74 513.01 191.15 472.13 193.05 286.46 193.05"/><path class="cls-7" d="M113,215.08a264.23,264.23,0,0,0,68.53,15.67,266.23,266.23,0,0,0,35.36.85,18.63,18.63,0,0,0,11-3.13,15.74,15.74,0,0,0,5.48-6.55L301.38,233l-65.09,1.42c-21,5.09-72.5,14.57-112.33-11.11a93.09,93.09,0,0,1-11-8.26" transform="translate(0 0)"/><path class="cls-8" d="M279.8,249.84l86-31.06c18.64,1,34.32.75,46,.29,36.37-1.45,48.83-5.92,55.07-8.55a96.69,96.69,0,0,0,21.9-12.82,151.49,151.49,0,0,1-17.52,13.67,159.46,159.46,0,0,1-30.66,16L279.8,249.84" transform="translate(0 0)"/><polygon class="cls-9" points="106.45 157.92 92.06 197.52 41.37 200.37 106.45 157.92"/><polygon class="cls-9" points="161.53 198.09 164.97 137.97 229.43 190.68 259.47 180.71 286.07 198.09 257.91 188.4 210.03 229.43 183.75 225.44 178.74 205.21 161.53 198.09"/><polygon class="cls-10" points="172.79 155.07 210.34 220.31 239.76 193.53 218.16 193.81 172.79 155.07"/><polygon class="cls-9" points="194.7 152.5 226.93 179.14 210.81 152.5 221.92 132.56 194.7 152.5"/><polygon class="cls-11" points="194.7 152.5 226.93 179.14 210.81 152.5 221.92 132.56 194.7 152.5"/><polygon class="cls-9" points="236.31 218.6 381.82 174.73 400.6 181.28 431.89 143.96 485.4 185.84 441.27 210.62 363.36 202.65 307.03 229.43 236.31 218.6"/><polygon class="cls-10" points="286.07 213.19 382.45 192.68 422.5 200.37 454.73 180.99 430.63 157.92 415.93 189.54 380.88 179.14 286.07 213.19"/><polygon points="451.91 141.87 523.26 199.23 536.4 193.91 451.91 141.87"/><polygon class="cls-11" points="451.91 141.87 523.26 199.23 536.4 193.91 451.91 141.87"/><path class="cls-9" d="M101.24,211.6a114.14,114.14,0,0,0,23-21.65c3.86-4.88,6.93-8.74,9.38-14.63,1.79-4.28,3.65-10.59,5-15.19.53-1.81,1-3.31,1.24-4.33a16.83,16.83,0,0,0,3.56,9.65,18.91,18.91,0,0,0,6.26,5.12l-43.19,38.37-5.21,2.66" transform="translate(0 0)"/><path class="cls-11" d="M101.24,211.6a114.14,114.14,0,0,0,23-21.65c3.86-4.88,6.93-8.74,9.38-14.63,1.79-4.28,3.65-10.59,5-15.19.53-1.81,1-3.31,1.24-4.33a16.83,16.83,0,0,0,3.56,9.65,18.91,18.91,0,0,0,6.26,5.12l-43.19,38.37Z" transform="translate(0 0)"/><path class="cls-9" d="M75.79,213.19c4.35,1,11.82,2.77,21.07,5,31.88,7.8,62.74,16.17,93,19.18a76.61,76.61,0,0,0,29.83-2.28,68.53,68.53,0,0,0,13.77-5.69l64.25,3.6-41.3,21.28c-34.56-5.36-63.24-9.79-91.79-14.06-20.61-3.08-43.34-6.4-70.72-18.23-7.73-3.34-13.92-6.53-18.15-8.83" transform="translate(0 0)"/><path class="cls-11" d="M75.79,213.19c4.35,1,11.82,2.77,21.07,5,31.88,7.8,62.74,16.17,93,19.18a76.61,76.61,0,0,0,29.83-2.28,68.53,68.53,0,0,0,13.77-5.69l64.25,3.6-41.3,21.28c-34.56-5.36-63.24-9.79-91.79-14.06-20.61-3.08-43.34-6.4-70.72-18.23C86.21,218.68,80,215.49,75.79,213.19Z" transform="translate(0 0)"/><path class="cls-9" d="M255.61,257.92l89.49-30.39,81.15.95a139.17,139.17,0,0,0,44-8.55A131.24,131.24,0,0,0,498,205.69a169.53,169.53,0,0,1-58.62,34.37,183.64,183.64,0,0,1-83,8.17Z" transform="translate(0 0)"/><path class="cls-11" d="M255.61,257.92l89.49-30.39,81.15.95a139.17,139.17,0,0,0,44-8.55A131.24,131.24,0,0,0,498,205.69a169.53,169.53,0,0,1-58.62,34.37,183.64,183.64,0,0,1-83,8.17Z" transform="translate(0 0)"/><path class="cls-9" d="M290,183.7,335.09,162l-19-31c5.23,6.45,29.93,35.84,56.32,31.72a33,33,0,0,0,5.43-1.33,21.87,21.87,0,0,1-5.64,2.47,22.82,22.82,0,0,1-7.23.79c-4.07-.16-23.83,4.47-75,19" transform="translate(0 0)"/><path class="cls-11" d="M290,183.7,335.09,162l-19-31c5.23,6.45,29.93,35.84,56.32,31.72a33,33,0,0,0,5.43-1.33,21.87,21.87,0,0,1-5.64,2.47,22.82,22.82,0,0,1-7.23.79C360.92,164.53,341.16,169.16,290,183.7Z" transform="translate(0 0)"/><path class="cls-9" d="M358,150.09c1.24-.38,9.3-2.69,16.55,1.6a17.28,17.28,0,0,1,6.16,6.23,14.5,14.5,0,0,1,2.12-9.07,17.13,17.13,0,0,1,10-7.12c-.51-.26-1-.5-1.54-.71-11.86-4.78-26.9,4.58-33.3,9.07" transform="translate(0 0)"/><path class="cls-11" d="M358,150.09c1.24-.38,9.3-2.69,16.55,1.6a17.28,17.28,0,0,1,6.16,6.23,14.5,14.5,0,0,1,2.12-9.07,17.13,17.13,0,0,1,10-7.12c-.51-.26-1-.5-1.54-.71C379.48,136.24,364.44,145.6,358,150.09Z" transform="translate(0 0)"/><path class="cls-9" d="M265.62,142.67c-2,17,2,30.09,10,32.62a11.26,11.26,0,0,0,5.88.13l6.28-.31a53.3,53.3,0,0,1-15-15,48.23,48.23,0,0,1-7.1-17.43" transform="translate(0 0)"/><path class="cls-11" d="M265.62,142.67c-2,17,2,30.09,10,32.62a11.26,11.26,0,0,0,5.88.13l6.28-.31a53.3,53.3,0,0,1-15-15A48.23,48.23,0,0,1,265.62,142.67Z" transform="translate(0 0)"/><path class="cls-12" d="M62.85,193.72a74.77,74.77,0,0,0,21.7-10.26,69.55,69.55,0,0,0,12.1-10.63A22.17,22.17,0,0,1,95,180.42a24.47,24.47,0,0,1-6.67,9.12,38.77,38.77,0,0,1-12.1,4.18,40.07,40.07,0,0,1-13.36,0" transform="translate(0 0)"/><path class="cls-13" d="M114.59,144l27.12-27.35c19.3,14.4,24.78,19.9,23.89,21.08s-7.55-2.08-9.7.29c-.31.33-.83,1.11,0,5.22s1.74,5.36,2.5,8.17c.69,2.55.75,5,.42,10.06-.4,5.93-.63,8.91-2.3,9.69-2.34,1.08-5.82-1.35-6.88-2.09-3.43-2.4-6.67-6.94-5.43-11,.56-1.83,1.84-2.79,1.67-4.94-.13-1.59-4.56-1.51-6.26.38-2.63,2.94-2.66,5.09-6.67,9.88-1.68,2-4.24,5.06-7.09,4.75-3.41-.37-5.32-5.29-5.85-6.65a17.36,17.36,0,0,1-1-6.65c.06-4.27,1.38-5.68.31-7.69-.82-1.56-2.59-2.53-4.69-3.13" transform="translate(0 0)"/><path class="cls-13" d="M366,139.7l46.52-21.95,38.38,23a21.22,21.22,0,0,0-12.75-.16c-5.14,1.68-8.58,5.45-12.07,9.28-1.64,1.79-2.42,2.91-3.13,3.79-2.84,3.53-8.37,7.87-20.24,10.83a7,7,0,0,1-4.76-.84c-2.94-2-2.38-6.69-2.12-8.85.72-6,3.89-8.36,2.5-12.34a8,8,0,0,0-1.67-2.74,79.64,79.64,0,0,0-9.39-1.25A81.48,81.48,0,0,0,366,139.7" transform="translate(0 0)"/><path class="cls-13" d="M216.6,131l64.77-44.63,62.27,46.15A119.16,119.16,0,0,1,352.09,146c2.33,4.29,5.4,10,4.07,10.92-1.13.77-5.11-2.22-7.2-3.8-1.4-1-2.7-2.22-5.32-4.55-1.44-1.3-2.52-2.3-2.92-2.66-1.74-1.62-5.18-4.81-8.65-8.45-3.8-4-3-3.61-6.89-7.7-4-4.25-6.16-6.16-9.38-6.83a12.44,12.44,0,0,0-5,0,9.05,9.05,0,0,0-3.13,4.27c-.62,1.95-.09,3.18.63,6.55.86,4.12,1.58,7.54,1.35,11.59-.14,2.43-.52,3.31-.28,5.72a17.32,17.32,0,0,1,.28,4.34c-.21,1.65-3.53,2.73-5,1.71-5.09-3.51-7-7.74-10.74-14.24-2.38-4.18-3.26-6.84-6.26-10.26a37.45,37.45,0,0,0-4.49-4.3c-4.32-3.51-12.24-8.37-14-6.9-1.57,1.32,3.19,6.76,9.08,21.17,1.09,2.68,3.85,9.62,2.39,10.35-.52.27-2-.61-4.9-2.37a12.15,12.15,0,0,1-2.5-1.71c-1.56-1.67-1.49-3.43-1.88-4.84-.47-1.75-1.93-4-6.26-6.27A5.42,5.42,0,0,0,261,138c-1.82,1.12-.94,3.17-2.2,6.26-1.62,4-5.47,6.24-8.44,8-2.46,1.43-3.69,2.15-4.59,1.8-2.81-1.08-3.63-10.2.83-16.33,1.51-2.07,3.71-3.93,6.54-8.59,1.44-2.36,1.92-3.62,1.36-4.55-1-1.74-5.23-1.34-7.48-1.1a41.76,41.76,0,0,0-12.94,3.79A52.37,52.37,0,0,1,216.6,131" transform="translate(0 0)"/><path class="cls-14" d="M32.89,138.14c.5.48.81.48,1.48.07l.35.37c-2,1.95-2.92,2.94-4.85,4.93l-.35-.36c.41-.7.4-1,0-1.55L17.23,128.73c-.53-.45-.83-.46-1.53,0l-.34-.37q7.17-7.44,14.79-14.53a1.16,1.16,0,0,0,.26-1.57l.41-.38L34.33,116l-.4.37a1,1,0,0,0-1.52.08c-4.2,3.91-6.27,5.91-10.35,10l3.41,3.68c2.63-2.65,4-3.95,6.65-6.52a1.14,1.14,0,0,0,.22-1.56l.4-.38,3.48,4-.39.37a1,1,0,0,0-1.5.09c-2.66,2.54-4,3.83-6.59,6.45l5.15,5.57" transform="translate(0 0)"/><path class="cls-15" d="M32.89,138.14c.5.48.81.48,1.48.07l.35.37c-2,1.95-2.92,2.94-4.85,4.93l-.35-.36c.41-.7.4-1,0-1.55L17.23,128.73c-.53-.45-.83-.46-1.53,0l-.34-.37q7.17-7.44,14.79-14.53a1.16,1.16,0,0,0,.26-1.57l.41-.38L34.33,116l-.4.37a1,1,0,0,0-1.52.08c-4.2,3.91-6.27,5.91-10.35,10l3.41,3.68c2.63-2.65,4-3.95,6.65-6.52a1.14,1.14,0,0,0,.22-1.56l.4-.38,3.48,4-.39.37a1,1,0,0,0-1.5.09c-2.66,2.54-4,3.83-6.59,6.45Z" transform="translate(0 0)"/><path class="cls-14" d="M51.63,98.58a9.92,9.92,0,0,1,7.66,4.24,11.33,11.33,0,0,1,1.84,8.49c-.55,3-2.16,5.62-5.09,8.12s-5.7,3.64-8.68,3.6a10.26,10.26,0,0,1-7.76-3.65,10.7,10.7,0,0,1-2.33-8.56c.53-3.19,2.21-5.94,5.26-8.54s6-3.84,9.1-3.7M43.35,116c2.72,3.32,7,3.54,10.49.62s4.06-7.37,1.55-10.71c-2.66-3.54-7-3.91-10.65-.82s-4.1,7.62-1.39,10.91" transform="translate(0 0)"/><path class="cls-15" d="M51.63,98.58a9.92,9.92,0,0,1,7.66,4.24,11.33,11.33,0,0,1,1.84,8.49c-.55,3-2.16,5.62-5.09,8.12s-5.7,3.64-8.68,3.6a10.26,10.26,0,0,1-7.76-3.65,10.7,10.7,0,0,1-2.33-8.56c.53-3.19,2.21-5.94,5.26-8.54S48.55,98.44,51.63,98.58ZM43.35,116c2.72,3.32,7,3.54,10.49.62s4.06-7.37,1.55-10.71c-2.66-3.54-7-3.91-10.65-.82S40.64,112.71,43.35,116Z" transform="translate(0 0)"/><path class="cls-14" d="M74.84,81.25a10,10,0,0,1,7.28,4.86,11.35,11.35,0,0,1,1.25,8.58c-.75,3-2.51,5.4-5.58,7.63s-5.88,3.11-8.83,2.82a10.41,10.41,0,0,1-7.41-4.3,10.76,10.76,0,0,1-1.74-8.69c.74-3.11,2.59-5.69,5.78-8s6.21-3.3,9.25-2.89M65.47,97.82c2.47,3.53,6.74,4.13,10.33,1.52a7.65,7.65,0,0,0,2.26-10.49c-2.39-3.74-6.69-4.49-10.48-1.74S63,94.32,65.47,97.82" transform="translate(0 0)"/><path class="cls-15" d="M74.84,81.25a10,10,0,0,1,7.28,4.86,11.35,11.35,0,0,1,1.25,8.58c-.75,3-2.51,5.4-5.58,7.63s-5.88,3.11-8.83,2.82a10.41,10.41,0,0,1-7.41-4.3,10.76,10.76,0,0,1-1.74-8.69c.74-3.11,2.59-5.69,5.78-8S71.8,80.84,74.84,81.25ZM65.47,97.82c2.47,3.53,6.74,4.13,10.33,1.52a7.65,7.65,0,0,0,2.26-10.49c-2.39-3.74-6.69-4.49-10.48-1.74S63,94.32,65.47,97.82Z" transform="translate(0 0)"/><path class="cls-14" d="M98.77,85.87c.4.57.67.67,1.39.45l.25.44c-2.24,1.37-3.35,2.07-5.57,3.48-.1-.17-.15-.26-.26-.43a1.08,1.08,0,0,0,.27-1.49L86.74,74.45c-2.33,1.48-3.49,2.23-5.8,3.75a1.13,1.13,0,0,0-.46,1.49L80,80l-2.86-4.65.45-.3a1,1,0,0,0,1.5.18c5.24-3.4,10.49-6.77,15.9-9.94a1.11,1.11,0,0,0,.54-1.46l.47-.27c1,1.92,1.55,2.89,2.59,4.81l-.45.27a1,1,0,0,0-1.47-.28c-2.36,1.39-3.54,2.1-5.88,3.55l7.94,14" transform="translate(0 0)"/><path class="cls-15" d="M98.77,85.87c.4.57.67.67,1.39.45l.25.44c-2.24,1.37-3.35,2.07-5.57,3.48-.1-.17-.15-.26-.26-.43a1.08,1.08,0,0,0,.27-1.49L86.74,74.45c-2.33,1.48-3.49,2.23-5.8,3.75a1.13,1.13,0,0,0-.46,1.49L80,80l-2.86-4.65.45-.3a1,1,0,0,0,1.5.18c5.24-3.4,10.49-6.77,15.9-9.94a1.11,1.11,0,0,0,.54-1.46l.47-.27c1,1.92,1.55,2.89,2.59,4.81l-.45.27a1,1,0,0,0-1.47-.28c-2.36,1.39-3.54,2.1-5.88,3.55Z" transform="translate(0 0)"/><path class="cls-14" d="M109.28,70.89l3.48,6.8c.34.61.64.7,1.36.52.09.18.14.27.23.46-2.28,1.25-3.42,1.89-5.68,3.19l-.24-.45a1.08,1.08,0,0,0,.33-1.47l-8.38-15.89c-.39-.59-.66-.69-1.42-.47l-.24-.45c2.4-1.38,3.6-2.06,6-3.38l.23.45c-.59.54-.66.83-.4,1.49l3.12,6.09c4.4-2.44,6.61-3.61,11.07-5.88l-2.92-6.2c-.35-.6-.62-.71-1.38-.54l-.22-.46c2.44-1.25,3.67-1.87,6.12-3.07l.21.47c-.6.5-.71.81-.45,1.46l7.46,16.38c.32.63.61.73,1.33.59.09.19.13.28.21.47-2.32,1.13-3.48,1.71-5.79,2.9l-.22-.47A1.06,1.06,0,0,0,123.5,72l-3.25-6.91c-4.42,2.25-6.61,3.41-11,5.82" transform="translate(0 0)"/><path class="cls-15" d="M109.28,70.89l3.48,6.8c.34.61.64.7,1.36.52.09.18.14.27.23.46-2.28,1.25-3.42,1.89-5.68,3.19l-.24-.45a1.08,1.08,0,0,0,.33-1.47l-8.38-15.89c-.39-.59-.66-.69-1.42-.47l-.24-.45c2.4-1.38,3.6-2.06,6-3.38l.23.45c-.59.54-.66.83-.4,1.49l3.12,6.09c4.4-2.44,6.61-3.61,11.07-5.88l-2.92-6.2c-.35-.6-.62-.71-1.38-.54l-.22-.46c2.44-1.25,3.67-1.87,6.12-3.07l.21.47c-.6.5-.71.81-.45,1.46l7.46,16.38c.32.63.61.73,1.33.59.09.19.13.28.21.47-2.32,1.13-3.48,1.71-5.79,2.9l-.22-.47A1.06,1.06,0,0,0,123.5,72l-3.25-6.91C115.83,67.32,113.64,68.48,109.28,70.89Z" transform="translate(0 0)"/><path class="cls-14" d="M138.34,66.65c-2.34,1.07-3.51,1.61-5.85,2.72l-.2-.47a1.08,1.08,0,0,0,.43-1.44q-3.61-8.25-7.21-16.5c-.34-.61-.61-.73-1.37-.58-.08-.19-.13-.28-.21-.47,2.47-1.17,3.71-1.75,6.19-2.87l.2.47c-.61.48-.71.77-.49,1.45l7,16.59c.31.64.59.75,1.32.63.08.19.12.28.19.47" transform="translate(0 0)"/><path class="cls-15" d="M138.34,66.65c-2.34,1.07-3.51,1.61-5.85,2.72l-.2-.47a1.08,1.08,0,0,0,.43-1.44q-3.61-8.25-7.21-16.5c-.34-.61-.61-.73-1.37-.58-.08-.19-.13-.28-.21-.47,2.47-1.17,3.71-1.75,6.19-2.87l.2.47c-.61.48-.71.77-.49,1.45l7,16.59c.31.64.59.75,1.32.63C138.23,66.37,138.27,66.46,138.34,66.65Z" transform="translate(0 0)"/><path class="cls-14" d="M157.46,54.92c.61-.27.77-.56.7-1.32l.47-.18c.72,2.08,1.08,3.12,1.79,5.19l-.46.18c-.41-.63-.68-.74-1.34-.56-5.67,2.13-11.32,4.44-16.84,6.89-.08-.19-.11-.29-.19-.48a1.06,1.06,0,0,0,.46-1.42L135.3,46.51c-.32-.62-.58-.75-1.35-.63l-.19-.47c2.49-1.1,3.74-1.63,6.25-2.68.07.19.11.29.19.48-.63.47-.73.75-.54,1.43q2.94,7.53,5.87,15c4.75-2,7.13-3,11.93-4.76" transform="translate(0 0)"/><path class="cls-15" d="M157.46,54.92c.61-.27.77-.56.7-1.32l.47-.18c.72,2.08,1.08,3.12,1.79,5.19l-.46.18c-.41-.63-.68-.74-1.34-.56-5.67,2.13-11.32,4.44-16.84,6.89-.08-.19-.11-.29-.19-.48a1.06,1.06,0,0,0,.46-1.42L135.3,46.51c-.32-.62-.58-.75-1.35-.63l-.19-.47c2.49-1.1,3.74-1.63,6.25-2.68.07.19.11.29.19.48-.63.47-.73.75-.54,1.43q2.94,7.53,5.87,15C150.28,57.69,152.66,56.73,157.46,54.92Z" transform="translate(0 0)"/><path class="cls-14" d="M178.31,47.78c.61-.22.79-.51.77-1.27l.47-.15c.6,2.12.89,3.18,1.49,5.3l-.47.14c-.38-.65-.64-.77-1.3-.64-5.77,1.76-11.51,3.69-17.14,5.77l-.17-.49a1.06,1.06,0,0,0,.55-1.38q-2.88-8.56-5.75-17.12c-.29-.64-.54-.79-1.31-.71-.07-.19-.1-.29-.16-.48,2.54-.93,3.81-1.39,6.37-2.27l.15.49c-.65.43-.76.71-.61,1.4q2.48,7.7,5,15.39c4.84-1.69,7.27-2.48,12.15-4" transform="translate(0 0)"/><path class="cls-15" d="M178.31,47.78c.61-.22.79-.51.77-1.27l.47-.15c.6,2.12.89,3.18,1.49,5.3l-.47.14c-.38-.65-.64-.77-1.3-.64-5.77,1.76-11.51,3.69-17.14,5.77l-.17-.49a1.06,1.06,0,0,0,.55-1.38q-2.88-8.56-5.75-17.12c-.29-.64-.54-.79-1.31-.71-.07-.19-.1-.29-.16-.48,2.54-.93,3.81-1.39,6.37-2.27l.15.49c-.65.43-.76.71-.61,1.4q2.48,7.7,5,15.39C171,50.07,173.43,49.28,178.31,47.78Z" transform="translate(0 0)"/><path class="cls-14" d="M196.2,31.46l-.49-.14-.06-.25c-.07-.35-.4-.63-1.11-.88a11.09,11.09,0,0,0-6.79-.28c-3,.78-4.58,2.34-4.16,3.95A1.56,1.56,0,0,0,184.87,35c.72.17,1,.11,3.73-.32l2.42-.37c2.83-.44,4.56-.33,6.08.29a5.66,5.66,0,0,1,3.21,4.08,6.44,6.44,0,0,1-1.52,5.73,13.67,13.67,0,0,1-6.23,3.36,17.76,17.76,0,0,1-8.25.15c-.93-.16-.93-.16-1.08-.11s-.24.17-.5.51l-.48-.09c.3-2.28.46-3.42.78-5.7l.51.09a.51.51,0,0,0,0,.19,1.71,1.71,0,0,0,1,1.09c1.57.82,4.89,1,7.25.33,2.93-.77,4.72-2.53,4.31-4.3a1.61,1.61,0,0,0-1.44-1.23,10.25,10.25,0,0,0-3.17.22l-2.33.35c-3.14.51-4.05.56-5.45.28a5.42,5.42,0,0,1-4.14-4c-1.11-4.07,1.64-7.6,7.2-9.08a18,18,0,0,1,8.51-.14,4.67,4.67,0,0,0,1.14.09,1.34,1.34,0,0,0,.68-.53l.49.12c-.57,2.2-.84,3.29-1.38,5.49" transform="translate(0 0)"/><path class="cls-15" d="M196.2,31.46l-.49-.14-.06-.25c-.07-.35-.4-.63-1.11-.88a11.09,11.09,0,0,0-6.79-.28c-3,.78-4.58,2.34-4.16,3.95A1.56,1.56,0,0,0,184.87,35c.72.17,1,.11,3.73-.32l2.42-.37c2.83-.44,4.56-.33,6.08.29a5.66,5.66,0,0,1,3.21,4.08,6.44,6.44,0,0,1-1.52,5.73,13.67,13.67,0,0,1-6.23,3.36,17.76,17.76,0,0,1-8.25.15c-.93-.16-.93-.16-1.08-.11s-.24.17-.5.51l-.48-.09c.3-2.28.46-3.42.78-5.7l.51.09a.51.51,0,0,0,0,.19,1.71,1.71,0,0,0,1,1.09c1.57.82,4.89,1,7.25.33,2.93-.77,4.72-2.53,4.31-4.3a1.61,1.61,0,0,0-1.44-1.23,10.25,10.25,0,0,0-3.17.22l-2.33.35c-3.14.51-4.05.56-5.45.28a5.42,5.42,0,0,1-4.14-4c-1.11-4.07,1.64-7.6,7.2-9.08a18,18,0,0,1,8.51-.14,4.67,4.67,0,0,0,1.14.09,1.34,1.34,0,0,0,.68-.53l.49.12C197,28.17,196.74,29.26,196.2,31.46Z" transform="translate(0 0)"/><path class="cls-14" d="M226.41,25.52l-.48-.18c0-.11,0-.16,0-.26-.05-.35-.35-.66-1-1a11,11,0,0,0-6.72-.87c-3,.52-4.74,1.93-4.45,3.57a1.59,1.59,0,0,0,1.19,1.25c.7.23,1,.2,3.72,0l2.44-.16c2.85-.19,4.55.07,6,.82a5.73,5.73,0,0,1,2.87,4.34,6.39,6.39,0,0,1-2,5.57,13.39,13.39,0,0,1-6.47,2.81,17.7,17.7,0,0,1-8.19-.56c-.92-.25-.92-.25-1.07-.22s-.26.15-.54.47l-.46-.13c.47-2.24.72-3.36,1.22-5.61l.5.14a1,1,0,0,0,0,.19,1.8,1.8,0,0,0,.88,1.17c1.49,1,4.78,1.38,7.18,1,3-.51,4.88-2.11,4.62-3.91a1.63,1.63,0,0,0-1.33-1.35,10.24,10.24,0,0,0-3.17-.06l-2.35.15c-3.15.23-4.06.2-5.43-.2a5.47,5.47,0,0,1-3.79-4.38c-.77-4.16,2.24-7.44,7.87-8.42a17.89,17.89,0,0,1,8.47.59c.9.19,1,.22,1.12.19a1.33,1.33,0,0,0,.72-.46l.47.16c-.73,2.14-1.09,3.21-1.8,5.35" transform="translate(0 0)"/><path class="cls-15" d="M226.41,25.52l-.48-.18c0-.11,0-.16,0-.26-.05-.35-.35-.66-1-1a11,11,0,0,0-6.72-.87c-3,.52-4.74,1.93-4.45,3.57a1.59,1.59,0,0,0,1.19,1.25c.7.23,1,.2,3.72,0l2.44-.16c2.85-.19,4.55.07,6,.82a5.73,5.73,0,0,1,2.87,4.34,6.39,6.39,0,0,1-2,5.57,13.39,13.39,0,0,1-6.47,2.81,17.7,17.7,0,0,1-8.19-.56c-.92-.25-.92-.25-1.07-.22s-.26.15-.54.47l-.46-.13c.47-2.24.72-3.36,1.22-5.61l.5.14a1,1,0,0,0,0,.19,1.8,1.8,0,0,0,.88,1.17c1.49,1,4.78,1.38,7.18,1,3-.51,4.88-2.11,4.62-3.91a1.63,1.63,0,0,0-1.33-1.35,10.24,10.24,0,0,0-3.17-.06l-2.35.15c-3.15.23-4.06.2-5.43-.2a5.47,5.47,0,0,1-3.79-4.38c-.77-4.16,2.24-7.44,7.87-8.42a17.89,17.89,0,0,1,8.47.59c.9.19,1,.22,1.12.19a1.33,1.33,0,0,0,.72-.46l.47.16C227.48,22.31,227.12,23.38,226.41,25.52Z" transform="translate(0 0)"/><path class="cls-14" d="M238.13,33.11c-.42,1.26-.62,1.9-1,3.16a3.17,3.17,0,0,0-.16,1c.05.45.42.73,1.08.81l0,.51c-2.66.32-4,.5-6.64.88,0-.2,0-.3-.07-.51.74-.23.95-.52,1.4-1.84,1.82-5.8,3.71-11.55,5.68-17.3a3.06,3.06,0,0,0,.24-1.29c-.05-.48-.37-.8-1-.92,0-.2,0-.3-.06-.51,3-.35,4.54-.51,7.56-.81l0,.52c-.53.21-.89.56-.85.92a4.2,4.2,0,0,0,.68,1.54q4.66,7.56,9,15.28c.83,1.42,1.16,1.72,1.95,1.79l0,.51c-3,.21-4.46.33-7.43.6l-.05-.51c.63-.15.94-.5.9-1a2.62,2.62,0,0,0-.36-.94l-1.66-2.87c-3.73.35-5.59.55-9.31,1m3.65-11c-1.09,3.18-1.62,4.78-2.65,8,2.7-.32,4.05-.46,6.75-.72-1.61-2.91-2.43-4.36-4.1-7.25" transform="translate(0 0)"/><path class="cls-15" d="M238.13,33.11c-.42,1.26-.62,1.9-1,3.16a3.17,3.17,0,0,0-.16,1c.05.45.42.73,1.08.81l0,.51c-2.66.32-4,.5-6.64.88,0-.2,0-.3-.07-.51.74-.23.95-.52,1.4-1.84,1.82-5.8,3.71-11.55,5.68-17.3a3.06,3.06,0,0,0,.24-1.29c-.05-.48-.37-.8-1-.92,0-.2,0-.3-.06-.51,3-.35,4.54-.51,7.56-.81l0,.52c-.53.21-.89.56-.85.92a4.2,4.2,0,0,0,.68,1.54q4.66,7.56,9,15.28c.83,1.42,1.16,1.72,1.95,1.79l0,.51c-3,.21-4.46.33-7.43.6l-.05-.51c.63-.15.94-.5.9-1a2.62,2.62,0,0,0-.36-.94l-1.66-2.87C243.71,32.46,241.85,32.66,238.13,33.11Zm3.65-11c-1.09,3.18-1.62,4.78-2.65,8,2.7-.32,4.05-.46,6.75-.72C244.27,26.42,243.45,25,241.78,22.08Z" transform="translate(0 0)"/><path class="cls-14" d="M263,34.82c.07.7.29.91,1,1.07,0,.21,0,.31,0,.51-2.52.12-3.77.19-6.29.36,0-.21,0-.31,0-.52a1,1,0,0,0,.88-1.18L257.56,17c-.1-.7-.31-.91-1.06-1,0-.21,0-.31,0-.52,6.3-.42,12.65-.67,19-.73.71-.08.93-.27,1.12-1h.51c0,2.2,0,3.31,0,5.51h-.51c-.19-.74-.42-.93-1.12-1-5.28.06-7.92.14-13.19.4.09,2,.14,3.06.23,5.1,3.41-.17,5.11-.23,8.52-.32.69-.08.91-.28,1.08-1h.51l.1,5.39h-.5c-.2-.74-.42-.92-1.11-1-3.38.08-5.06.15-8.44.31l.35,7.73" transform="translate(0 0)"/><path class="cls-15" d="M263,34.82c.07.7.29.91,1,1.07,0,.21,0,.31,0,.51-2.52.12-3.77.19-6.29.36,0-.21,0-.31,0-.52a1,1,0,0,0,.88-1.18L257.56,17c-.1-.7-.31-.91-1.06-1,0-.21,0-.31,0-.52,6.3-.42,12.65-.67,19-.73.71-.08.93-.27,1.12-1h.51c0,2.2,0,3.31,0,5.51h-.51c-.19-.74-.42-.93-1.12-1-5.28.06-7.92.14-13.19.4.09,2,.14,3.06.23,5.1,3.41-.17,5.11-.23,8.52-.32.69-.08.91-.28,1.08-1h.51l.1,5.39h-.5c-.2-.74-.42-.92-1.11-1-3.38.08-5.06.15-8.44.31Z" transform="translate(0 0)"/><path class="cls-14" d="M285.25,32.54c5.28.08,7.92.18,13.19.46.65,0,.91-.21,1.13-.94l.46,0-.3,5.51-.45,0c-.14-.75-.35-1-1-1C292.15,36.18,286,36,279.85,36v-.51c.7-.19.89-.42.95-1.12q0-9.06,0-18.12c-.07-.71-.26-.94-1-1.13v-.51c6.36,0,12.76.14,19.1.49.71,0,.95-.2,1.18-.93l.51,0c-.11,2.2-.17,3.31-.29,5.51l-.51,0c-.15-.75-.36-.95-1.06-1.05-5.32-.28-8-.37-13.32-.45l-.07,5.1c3.41.05,5.12.1,8.52.23.7,0,.93-.22,1.15-1l.5,0c-.09,2.17-.13,3.25-.22,5.42l-.5,0c-.16-.75-.37-.95-1.05-1-3.38-.13-5.07-.18-8.44-.23,0,2.33,0,3.5-.09,5.83" transform="translate(0 0)"/><path class="cls-15" d="M285.25,32.54c5.28.08,7.92.18,13.19.46.65,0,.91-.21,1.13-.94l.46,0-.3,5.51-.45,0c-.14-.75-.35-1-1-1C292.15,36.18,286,36,279.85,36v-.51c.7-.19.89-.42.95-1.12q0-9.06,0-18.12c-.07-.71-.26-.94-1-1.13v-.51c6.36,0,12.76.14,19.1.49.71,0,.95-.2,1.18-.93l.51,0c-.11,2.2-.17,3.31-.29,5.51l-.51,0c-.15-.75-.36-.95-1.06-1.05-5.32-.28-8-.37-13.32-.45l-.07,5.1c3.41.05,5.12.1,8.52.23.7,0,.93-.22,1.15-1l.5,0c-.09,2.17-.13,3.25-.22,5.42l-.5,0c-.16-.75-.37-.95-1.05-1-3.38-.13-5.07-.18-8.44-.23C285.3,29,285.29,30.21,285.25,32.54Z" transform="translate(0 0)"/><path class="cls-14" d="M314.1,36.09c0,.71.16.95.84,1.21l-.05.51c-2.51-.25-3.76-.37-6.28-.58,0-.21,0-.31,0-.51.72-.14.92-.34,1-1q.65-8.09,1.3-16.17c-2.63-.23-3.95-.33-6.59-.51-.7,0-.94.19-1.17.92l-.51,0c.13-2.2.2-3.3.33-5.5l.51,0c.15.75.36.95,1.07,1.07,6,.39,12,.95,17.92,1.66.71,0,.95-.14,1.23-.85l.51.06c-.25,2.19-.37,3.29-.62,5.48l-.51-.06c-.11-.76-.31-1-1-1.12-2.62-.31-3.94-.45-6.57-.72q-.73,8.09-1.49,16.16" transform="translate(0 0)"/><path class="cls-15" d="M314.1,36.09c0,.71.16.95.84,1.21l-.05.51c-2.51-.25-3.76-.37-6.28-.58,0-.21,0-.31,0-.51.72-.14.92-.34,1-1q.65-8.09,1.3-16.17c-2.63-.23-3.95-.33-6.59-.51-.7,0-.94.19-1.17.92l-.51,0c.13-2.2.2-3.3.33-5.5l.51,0c.15.75.36.95,1.07,1.07,6,.39,12,.95,17.92,1.66.71,0,.95-.14,1.23-.85l.51.06c-.25,2.19-.37,3.29-.62,5.48l-.51-.06c-.11-.76-.31-1-1-1.12-2.62-.31-3.94-.45-6.57-.72Q314.86,28,314.1,36.09Z" transform="translate(0 0)"/><path class="cls-14" d="M336.57,39.08c-.05.7.1,1,.79,1.27,0,.2,0,.3-.08.5-2.51-.42-3.77-.63-6.29-1,0-.21,0-.31.07-.51.75-.08,1-.28,1.13-1,.41-2.89.61-4.34,1-7.23-2.12-4.25-3.22-6.37-5.48-10.6-.91-1.77-1.46-2.36-2.31-2.53,0-.2,0-.3.06-.51,3.36.43,5,.66,8.4,1.16,0,.21-.05.31-.07.51-.65,0-1.12.29-1.19.8,0,.25,0,.29.47,1.33,1.22,2.5,1.81,3.76,3,6.27,1.87-2,2.81-3,4.73-5,.7-.73.79-.88.83-1.16.07-.44-.28-.89-.9-1.1,0-.2.05-.3.08-.5,3.29.55,4.93.85,8.2,1.49,0,.2,0,.3-.09.5-.9-.11-1.56.26-3,1.69-3.37,3.32-5,5-8.27,8.39-.45,2.89-.67,4.34-1.12,7.23" transform="translate(0 0)"/><path class="cls-15" d="M336.57,39.08c-.05.7.1,1,.79,1.27,0,.2,0,.3-.08.5-2.51-.42-3.77-.63-6.29-1,0-.21,0-.31.07-.51.75-.08,1-.28,1.13-1,.41-2.89.61-4.34,1-7.23-2.12-4.25-3.22-6.37-5.48-10.6-.91-1.77-1.46-2.36-2.31-2.53,0-.2,0-.3.06-.51,3.36.43,5,.66,8.4,1.16,0,.21-.05.31-.07.51-.65,0-1.12.29-1.19.8,0,.25,0,.29.47,1.33,1.22,2.5,1.81,3.76,3,6.27,1.87-2,2.81-3,4.73-5,.7-.73.79-.88.83-1.16.07-.44-.28-.89-.9-1.1,0-.2.05-.3.08-.5,3.29.55,4.93.85,8.2,1.49,0,.2,0,.3-.09.5-.9-.11-1.56.26-3,1.69-3.37,3.32-5,5-8.27,8.39C337.24,34.74,337,36.19,336.57,39.08Z" transform="translate(0 0)"/><path class="cls-14" d="M373.78,34l-.37-.37c0-.1,0-.15.06-.24.09-.35-.07-.76-.59-1.32A11.38,11.38,0,0,0,367,28.56c-3-.74-5.1-.15-5.45,1.48a1.65,1.65,0,0,0,.62,1.63c.56.49.82.57,3.43,1.52.93.34,1.39.5,2.31.85,2.7,1,4.18,1.92,5.25,3.2a5.9,5.9,0,0,1,1,5.16,6.19,6.19,0,0,1-3.92,4.33,13.29,13.29,0,0,1-7,0,18.18,18.18,0,0,1-7.35-3.85c-.75-.6-.75-.6-.9-.63s-.29,0-.67.21l-.38-.31c1.29-1.87,1.93-2.8,3.24-4.66l.41.32a.75.75,0,0,0-.07.18,1.81,1.81,0,0,0,.37,1.43c1,1.48,3.89,3.22,6.26,3.81,2.93.74,5.3,0,5.74-1.72a1.68,1.68,0,0,0-.72-1.78,10.17,10.17,0,0,0-2.9-1.34c-.89-.34-1.33-.5-2.22-.82-3-1.07-3.82-1.47-4.94-2.4a5.63,5.63,0,0,1-1.83-5.57c.85-4.14,4.86-5.94,10.43-4.55a18.45,18.45,0,0,1,7.59,4c.77.54.82.59,1,.63a1.25,1.25,0,0,0,.83-.13l.38.34c-1.49,1.67-2.23,2.51-3.69,4.19" transform="translate(0 0)"/><path class="cls-15" d="M373.78,34l-.37-.37c0-.1,0-.15.06-.24.09-.35-.07-.76-.59-1.32A11.38,11.38,0,0,0,367,28.56c-3-.74-5.1-.15-5.45,1.48a1.65,1.65,0,0,0,.62,1.63c.56.49.82.57,3.43,1.52.93.34,1.39.5,2.31.85,2.7,1,4.18,1.92,5.25,3.2a5.9,5.9,0,0,1,1,5.16,6.19,6.19,0,0,1-3.92,4.33,13.29,13.29,0,0,1-7,0,18.18,18.18,0,0,1-7.35-3.85c-.75-.6-.75-.6-.9-.63s-.29,0-.67.21l-.38-.31c1.29-1.87,1.93-2.8,3.24-4.66l.41.32a.75.75,0,0,0-.07.18,1.81,1.81,0,0,0,.37,1.43c1,1.48,3.89,3.22,6.26,3.81,2.93.74,5.3,0,5.74-1.72a1.68,1.68,0,0,0-.72-1.78,10.17,10.17,0,0,0-2.9-1.34c-.89-.34-1.33-.5-2.22-.82-3-1.07-3.82-1.47-4.94-2.4a5.63,5.63,0,0,1-1.83-5.57c.85-4.14,4.86-5.94,10.43-4.55a18.45,18.45,0,0,1,7.59,4c.77.54.82.59,1,.63a1.25,1.25,0,0,0,.83-.13l.38.34C376,31.51,375.24,32.35,373.78,34Z" transform="translate(0 0)"/><path class="cls-14" d="M400.16,37.89a11.11,11.11,0,0,1-5,15.25c-2.66,1.22-5.52,1.28-9,.16A12.18,12.18,0,0,1,379,47.85a11.5,11.5,0,0,1-1.13-8.7,10.5,10.5,0,0,1,5.42-6.77c2.73-1.32,5.73-1.41,9.32-.24s6.11,3,7.6,5.75m-17.82,2.6a7.35,7.35,0,0,0,4.91,9.35,7,7,0,0,0,9.14-4.64,7.29,7.29,0,0,0-4.87-9.6,6.91,6.91,0,0,0-9.18,4.89" transform="translate(0 0)"/><path class="cls-15" d="M400.16,37.89a11.11,11.11,0,0,1-5,15.25c-2.66,1.22-5.52,1.28-9,.16A12.18,12.18,0,0,1,379,47.85a11.5,11.5,0,0,1-1.13-8.7,10.5,10.5,0,0,1,5.42-6.77c2.73-1.32,5.73-1.41,9.32-.24S398.67,35.16,400.16,37.89Zm-17.82,2.6a7.35,7.35,0,0,0,4.91,9.35,7,7,0,0,0,9.14-4.64,7.29,7.29,0,0,0-4.87-9.6A6.91,6.91,0,0,0,382.34,40.49Z" transform="translate(0 0)"/><path class="cls-14" d="M418.69,61.49c.62.24.93.13,1.38-.47l.46.2-2.08,5.08-.45-.2c.1-.75,0-1-.63-1.35-5.52-2.44-11.17-4.73-16.85-6.84l.16-.49c.73.07,1-.07,1.27-.71l6-17c.17-.69.06-1-.58-1.41l.17-.49c2.54.95,3.8,1.44,6.32,2.44l-.17.48c-.77-.09-1,0-1.33.68L406.8,56.56c4.78,1.88,7.16,2.87,11.89,4.93" transform="translate(0 0)"/><path class="cls-15" d="M418.69,61.49c.62.24.93.13,1.38-.47l.46.2-2.08,5.08-.45-.2c.1-.75,0-1-.63-1.35-5.52-2.44-11.17-4.73-16.85-6.84l.16-.49c.73.07,1-.07,1.27-.71l6-17c.17-.69.06-1-.58-1.41l.17-.49c2.54.95,3.8,1.44,6.32,2.44l-.17.48c-.77-.09-1,0-1.33.68L406.8,56.56C411.58,58.44,414,59.43,418.69,61.49Z" transform="translate(0 0)"/><path class="cls-14" d="M449.67,57.31c-.76-.19-1-.08-1.4.52-2.08,4.29-3.11,6.43-5.19,10.71-1.44,2.95-3.08,4.34-5.24,4.53s-4.53-.46-7.5-1.91a15.38,15.38,0,0,1-6.19-4.77c-1.23-1.84-1.26-4,0-7.07,1.83-4.41,2.75-6.61,4.59-11,.21-.67.12-1-.5-1.45l.2-.47c2.5,1.12,3.74,1.69,6.23,2.86-.09.19-.13.28-.21.47-.79-.16-1.06,0-1.4.58L428.87,60c-1,2.25-1.16,3.23-.82,4.27C428.5,65.64,429.92,67,432,68s3.92,1.3,5.19.8c1-.38,1.6-1.15,2.64-3.37,1.81-3.84,2.72-5.75,4.52-9.59.24-.67.16-1-.43-1.48l.21-.46c2.32,1.18,3.47,1.77,5.77,3l-.22.46" transform="translate(0 0)"/><path class="cls-15" d="M449.67,57.31c-.76-.19-1-.08-1.4.52-2.08,4.29-3.11,6.43-5.19,10.71-1.44,2.95-3.08,4.34-5.24,4.53s-4.53-.46-7.5-1.91a15.38,15.38,0,0,1-6.19-4.77c-1.23-1.84-1.26-4,0-7.07,1.83-4.41,2.75-6.61,4.59-11,.21-.67.12-1-.5-1.45l.2-.47c2.5,1.12,3.74,1.69,6.23,2.86-.09.19-.13.28-.21.47-.79-.16-1.06,0-1.4.58L428.87,60c-1,2.25-1.16,3.23-.82,4.27C428.5,65.64,429.92,67,432,68s3.92,1.3,5.19.8c1-.38,1.6-1.15,2.64-3.37,1.81-3.84,2.72-5.75,4.52-9.59.24-.67.16-1-.43-1.48l.21-.46c2.32,1.18,3.47,1.77,5.77,3Z" transform="translate(0 0)"/><path class="cls-14" d="M454.38,81.75a1.09,1.09,0,0,0,.31,1.48c-.09.18-.14.27-.24.45-2.25-1.33-3.39-2-5.66-3.26L449,80c.72.18,1,.08,1.37-.51l7.46-14.25c-2.37-1.35-3.57-2-6-3.32a1,1,0,0,0-1.45.34L450,62c1-2,1.46-2.94,2.43-4.91l.47.26a1.11,1.11,0,0,0,.58,1.43c5.48,3,10.89,6.08,16.17,9.32a1,1,0,0,0,1.48-.25l.46.28-2.7,4.75-.45-.27a1.12,1.12,0,0,0-.51-1.47c-2.35-1.43-3.52-2.14-5.89-3.52Z" transform="translate(0 0)"/><path class="cls-15" d="M454.38,81.75a1.09,1.09,0,0,0,.31,1.48c-.09.18-.14.27-.24.45-2.25-1.33-3.39-2-5.66-3.26L449,80c.72.18,1,.08,1.37-.51l7.46-14.25c-2.37-1.35-3.57-2-6-3.32a1,1,0,0,0-1.45.34L450,62c1-2,1.46-2.94,2.43-4.91l.47.26a1.11,1.11,0,0,0,.58,1.43c5.48,3,10.89,6.08,16.17,9.32a1,1,0,0,0,1.48-.25l.46.28-2.7,4.75-.45-.27a1.12,1.12,0,0,0-.51-1.47c-2.35-1.43-3.52-2.14-5.89-3.52Z" transform="translate(0 0)"/><path class="cls-14" d="M468.21,92.22c-2.2-1.44-3.31-2.15-5.54-3.55.1-.17.16-.26.26-.44.71.22,1,.14,1.39-.43q4.51-7.76,9-15.51c.3-.64.24-.94-.32-1.52l.26-.44c2.35,1.48,3.52,2.23,5.86,3.75-.11.18-.16.26-.26.44-.75-.26-1-.18-1.45.38l-9.21,15.39c-.33.62-.26.93.26,1.49l-.27.44" transform="translate(0 0)"/><path class="cls-15" d="M468.21,92.22c-2.2-1.44-3.31-2.15-5.54-3.55.1-.17.16-.26.26-.44.71.22,1,.14,1.39-.43q4.51-7.76,9-15.51c.3-.64.24-.94-.32-1.52l.26-.44c2.35,1.48,3.52,2.23,5.86,3.75-.11.18-.16.26-.26.44-.75-.26-1-.18-1.45.38l-9.21,15.39c-.33.62-.26.93.26,1.49Z" transform="translate(0 0)"/><path class="cls-14" d="M498.82,91.11A10.76,10.76,0,0,1,497,99.94a10.37,10.37,0,0,1-7.3,4.2c-2.94.31-5.76-.57-8.84-2.77a13.32,13.32,0,0,1-5.6-7.6,11.38,11.38,0,0,1,1.29-8.72,10.07,10.07,0,0,1,7.18-4.76c3-.38,6,.5,9.2,2.8s5.15,4.9,5.86,8m-18.18-3.32a7.63,7.63,0,0,0,2.23,10.59c3.55,2.55,7.87,2,10.25-1.47,2.52-3.64,1.66-8.1-2.14-10.83s-8.05-1.9-10.34,1.71" transform="translate(0 0)"/><path class="cls-15" d="M498.82,91.11A10.76,10.76,0,0,1,497,99.94a10.37,10.37,0,0,1-7.3,4.2c-2.94.31-5.76-.57-8.84-2.77a13.32,13.32,0,0,1-5.6-7.6,11.38,11.38,0,0,1,1.29-8.72,10.07,10.07,0,0,1,7.18-4.76c3-.38,6,.5,9.2,2.8S498.11,88,498.82,91.11Zm-18.18-3.32a7.63,7.63,0,0,0,2.23,10.59c3.55,2.55,7.87,2,10.25-1.47,2.52-3.64,1.66-8.1-2.14-10.83S482.93,84.18,480.64,87.79Z" transform="translate(0 0)"/><path class="cls-14" d="M498.79,112.54c-.4.57-.35.89.11,1.52l-.3.4c-2-1.6-3-2.39-4.93-4,.12-.16.18-.24.29-.41.7.31,1,.26,1.45-.27L506,95.39c.36-.6.33-.91-.18-1.55l.3-.41c2.43,1.92,3.64,2.89,6,4.87l-.3.4c-.43-.23-.77-.18-1,.1s-.18.46-.12,1c.76,5.86,1.43,11.7,2,17.57l7.87-9.71c.38-.59.37-.9-.11-1.57l.31-.39c2,1.78,3.05,2.68,5.06,4.5l-.32.39c-.71-.4-1-.39-1.51.12q-5.68,6.87-11.38,13.72c-.42.56-.39.88.05,1.53l-.32.39c-2-1.84-3.07-2.75-5.13-4.55l.32-.39c.4.22.67.21.91-.09s.18-.43.07-1.35c-.6-5.91-1.29-11.78-2.07-17.67l-7.69,10.28" transform="translate(0 0)"/><path class="cls-15" d="M498.79,112.54c-.4.57-.35.89.11,1.52l-.3.4c-2-1.6-3-2.39-4.93-4,.12-.16.18-.24.29-.41.7.31,1,.26,1.45-.27L506,95.39c.36-.6.33-.91-.18-1.55l.3-.41c2.43,1.92,3.64,2.89,6,4.87l-.3.4c-.43-.23-.77-.18-1,.1s-.18.46-.12,1c.76,5.86,1.43,11.7,2,17.57l7.87-9.71c.38-.59.37-.9-.11-1.57l.31-.39c2,1.78,3.05,2.68,5.06,4.5l-.32.39c-.71-.4-1-.39-1.51.12q-5.68,6.87-11.38,13.72c-.42.56-.39.88.05,1.53l-.32.39c-2-1.84-3.07-2.75-5.13-4.55l.32-.39c.4.22.67.21.91-.09s.18-.43.07-1.35c-.6-5.91-1.29-11.78-2.07-17.67Z" transform="translate(0 0)"/><path class="cls-14" d="M538,131.08l-.17-.53.17-.18c.24-.25.28-.7.07-1.5a13.47,13.47,0,0,0-3.73-6.42c-2.37-2.31-4.6-3-5.68-1.74a1.64,1.64,0,0,0-.18,1.77c.28.76.47,1,2.43,3.27l1.72,2c2,2.38,2.93,4,3.31,5.78a5.71,5.71,0,0,1-1.47,5.12,5.79,5.79,0,0,1-5.6,1.59,15.51,15.51,0,0,1-6.42-4,21.7,21.7,0,0,1-4.92-7.49c-.41-.94-.41-.94-.53-1.06s-.28-.13-.71-.18l-.2-.49c2-.93,3.07-1.38,5.13-2.29l.22.51a.61.61,0,0,0-.15.12,1.8,1.8,0,0,0-.33,1.46c.24,1.87,2.06,5,4,6.85,2.35,2.29,4.84,3,6.06,1.71a1.72,1.72,0,0,0,.17-2,12.65,12.65,0,0,0-2-2.81l-1.65-2c-2.25-2.62-2.82-3.42-3.4-4.86a5.66,5.66,0,0,1,.91-5.92c2.7-3.16,7.2-2.52,11.65,1.82a21.88,21.88,0,0,1,5.09,7.8c.45.9.48,1,.6,1.1a1.45,1.45,0,0,0,.83.36c.07.2.11.31.19.51-2.14.63-3.21,1-5.33,1.6" transform="translate(0 0)"/><path class="cls-15" d="M538,131.08l-.17-.53.17-.18c.24-.25.28-.7.07-1.5a13.47,13.47,0,0,0-3.73-6.42c-2.37-2.31-4.6-3-5.68-1.74a1.64,1.64,0,0,0-.18,1.77c.28.76.47,1,2.43,3.27l1.72,2c2,2.38,2.93,4,3.31,5.78a5.71,5.71,0,0,1-1.47,5.12,5.79,5.79,0,0,1-5.6,1.59,15.51,15.51,0,0,1-6.42-4,21.7,21.7,0,0,1-4.92-7.49c-.41-.94-.41-.94-.53-1.06s-.28-.13-.71-.18l-.2-.49c2-.93,3.07-1.38,5.13-2.29l.22.51a.61.61,0,0,0-.15.12,1.8,1.8,0,0,0-.33,1.46c.24,1.87,2.06,5,4,6.85,2.35,2.29,4.84,3,6.06,1.71a1.72,1.72,0,0,0,.17-2,12.65,12.65,0,0,0-2-2.81l-1.65-2c-2.25-2.62-2.82-3.42-3.4-4.86a5.66,5.66,0,0,1,.91-5.92c2.7-3.16,7.2-2.52,11.65,1.82a21.88,21.88,0,0,1,5.09,7.8c.45.9.48,1,.6,1.1a1.45,1.45,0,0,0,.83.36c.07.2.11.31.19.51C541.15,130.11,540.08,130.43,538,131.08Z" transform="translate(0 0)"/></g></g></g></svg>