<svg id="Layer_1" data-name="Layer 1" xmlns="http://www.w3.org/2000/svg" xmlns:xlink="http://www.w3.org/1999/xlink" viewBox="0 0 225.07 55.8"><defs><style>.cls-1,.cls-11{fill:none;}.cls-2{clip-path:url(#clip-path);}.cls-3{clip-path:url(#clip-path-2);}.cls-4{fill:#94959a;}.cls-5{fill:#a8a9ae;}.cls-6{fill:#555356;}.cls-7{fill:#d3d4d6;}.cls-8{fill:#d2d3d5;}.cls-9{fill:#010101;}.cls-10{fill:#bdbfc1;}.cls-11{stroke:#000;stroke-miterlimit:10;stroke-width:0.07px;}.cls-12{fill:#c3c2c2;}.cls-13{fill:#f3f3f4;}.cls-14{clip-path:url(#clip-path-3);}.cls-15{clip-path:url(#clip-path-4);}.cls-16{font-size:22.56px;fill:#ef5a28;font-family:Copperplate-Bol, Copperplate;}.cls-17{letter-spacing:-0.02em;}.cls-18{letter-spacing:0em;}.cls-19{letter-spacing:-0.01em;}.cls-20{letter-spacing:0.01em;}.cls-21{letter-spacing:0em;}.cls-22{letter-spacing:0.02em;}.cls-23{letter-spacing:-0.02em;}.cls-24{letter-spacing:0.01em;}.cls-25{letter-spacing:0.05em;}.cls-26{letter-spacing:0em;}.cls-27{letter-spacing:0.02em;}.cls-28{letter-spacing:0.01em;}.cls-29{letter-spacing:0em;}</style><clipPath id="clip-path" transform="translate(0 0)"><rect class="cls-1" width="225" height="51"/></clipPath><clipPath id="clip-path-2" transform="translate(0 0)"><rect class="cls-1" x="5.16" width="122.07" height="46.06"/></clipPath><clipPath id="clip-path-3" transform="translate(0 0)"><rect class="cls-1" x="98.34" width="122.07" height="46.06"/></clipPath><clipPath id="clip-path-4" transform="translate(0 0)"><rect class="cls-1" x="54.7" width="122.07" height="46.06"/></clipPath></defs><title>foothillsnavlogo</title><g id="Artwork_16" data-name="Artwork 16"><g class="cls-2"><g class="cls-3"><path class="cls-4" d="M5.16,46.06H127.23a51.14,51.14,0,0,0-6.3-11.73,43.84,43.84,0,0,0-9.44-9.62h-89a42.44,42.44,0,0,0-10.69,9.87A49.66,49.66,0,0,0,5.16,46.06" transform="translate(0 0)"/><path class="cls-4" d="M22.05,25l13.63-9.58a31.4,31.4,0,0,0,4-4.35,33.65,33.65,0,0,0,2.58-3.93q2.76,2.65,5.57,5.4L50,14.73,67,.2c2.9,2.74,5,4.7,6.56,6.09A48,48,0,0,1,79,12c.44.52.79,1,1,1.28L89.81,7.5c3.46,2.3,7.08,4.88,10.81,7.75,3.92,3,7.55,6.05,10.87,9a30,30,0,0,1-1.75,3,31.3,31.3,0,0,1-8.47,8.34,38.09,38.09,0,0,1-4.72,2.91A48.48,48.48,0,0,1,90,41.14c-1.68.58-4.22,1.47-6.86,2.17a67.19,67.19,0,0,1-16.65,2A64.15,64.15,0,0,1,51.4,43.48c-7.12-1.76-19.13-4.93-27.89-16.43-.66-.86-1.16-1.6-1.46-2" transform="translate(0 0)"/><polygon class="cls-5" points="49.76 15.12 56.78 22.63 61.83 19.76 66.81 24.67 95.07 18.78 108.93 24.67 111.64 24.59 89.96 7.17 80.02 13.23 67.01 0 49.76 15.12"/><path class="cls-4" d="M58.56,11a33.24,33.24,0,0,0,.12,3.76,32.12,32.12,0,0,0,1,5.66A5.29,5.29,0,0,1,58,18.31a6.74,6.74,0,0,1-.56-2.59,9.16,9.16,0,0,1,.13-1.93,8.76,8.76,0,0,1,1-2.78" transform="translate(0 0)"/><polygon class="cls-6" points="67.9 24.39 86.96 19.87 94.04 14.48 99.59 20.43 107.55 23.95 100.39 24.39 67.9 24.39"/><path class="cls-7" d="M37.54,29.43a37.45,37.45,0,0,0,12,3.58,35.77,35.77,0,0,0,6.19.2,2.69,2.69,0,0,0,1.91-.72,3.52,3.52,0,0,0,1-1.5l11.91,2.54-11.39.33C55.44,35,46.43,37.19,39.46,31.32a18.86,18.86,0,0,1-1.92-1.89" transform="translate(0 0)"/><path class="cls-8" d="M66.74,37.38l15.05-7.11a66.83,66.83,0,0,0,8,.07c6.37-.33,8.55-1.35,9.64-2a16.64,16.64,0,0,0,3.84-2.93,29.79,29.79,0,0,1-3.07,3.13,26.34,26.34,0,0,1-5.37,3.65L66.74,37.38" transform="translate(0 0)"/><polygon class="cls-9" points="36.4 16.35 33.88 25.41 25.01 26.06 36.4 16.35"/><polygon class="cls-9" points="46.04 25.54 46.64 11.79 57.92 23.85 63.18 21.57 67.83 25.54 62.91 23.33 54.53 32.71 49.93 31.8 49.05 27.17 46.04 25.54"/><polygon class="cls-10" points="48.01 15.7 54.58 30.62 59.73 24.5 55.95 24.56 48.01 15.7"/><polygon class="cls-9" points="51.84 15.12 57.48 21.21 54.66 15.12 56.61 10.55 51.84 15.12"/><polygon class="cls-11" points="51.84 15.12 57.48 21.21 54.66 15.12 56.61 10.55 51.84 15.12"/><polygon class="cls-9" points="59.13 30.23 84.59 20.2 87.88 21.7 93.35 13.16 102.72 22.74 95 28.41 81.36 26.58 71.5 32.71 59.13 30.23"/><polygon class="cls-10" points="67.83 29 84.7 24.3 91.71 26.06 97.35 21.63 93.13 16.35 90.56 23.59 84.43 21.21 67.83 29"/><polygon points="96.86 12.68 109.34 25.8 111.64 24.59 96.86 12.68"/><polygon class="cls-11" points="96.86 12.68 109.34 25.8 111.64 24.59 96.86 12.68"/><path class="cls-9" d="M35.49,28.63a23.62,23.62,0,0,0,4-4.95,14.32,14.32,0,0,0,1.65-3.35c.31-1,.63-2.42.87-3.47l.22-1a4.59,4.59,0,0,0,.62,2.21A3.57,3.57,0,0,0,44,19.25L36.4,28l-.91.61" transform="translate(0 0)"/><path class="cls-11" d="M35.49,28.63a23.62,23.62,0,0,0,4-4.95,14.32,14.32,0,0,0,1.65-3.35c.31-1,.63-2.42.87-3.47l.22-1a4.59,4.59,0,0,0,.62,2.21A3.57,3.57,0,0,0,44,19.25L36.4,28Z" transform="translate(0 0)"/><path class="cls-9" d="M31,29c.76.24,2.07.64,3.69,1.16,5.58,1.78,11,3.69,16.28,4.38A10.31,10.31,0,0,0,56.22,34a10.57,10.57,0,0,0,2.41-1.3l11.25.82L62.65,38.4c-6-1.23-11.07-2.24-16.07-3.22A37.16,37.16,0,0,1,34.21,31,35,35,0,0,1,31,29" transform="translate(0 0)"/><path class="cls-11" d="M31,29c.76.24,2.07.64,3.69,1.16,5.58,1.78,11,3.69,16.28,4.38A10.31,10.31,0,0,0,56.22,34a10.57,10.57,0,0,0,2.41-1.3l11.25.82L62.65,38.4c-6-1.23-11.07-2.24-16.07-3.22A37.16,37.16,0,0,1,34.21,31,35,35,0,0,1,31,29Z" transform="translate(0 0)"/><path class="cls-9" d="M62.5,39.22l15.66-6.95,14.21.22a19.42,19.42,0,0,0,7.7-2,22.34,22.34,0,0,0,4.86-3.26,29.49,29.49,0,0,1-10.26,7.86A25,25,0,0,1,80.14,37L62.5,39.22" transform="translate(0 0)"/><path class="cls-11" d="M62.5,39.22l15.66-6.95,14.21.22a19.42,19.42,0,0,0,7.7-2,22.34,22.34,0,0,0,4.86-3.26,29.49,29.49,0,0,1-10.26,7.86A25,25,0,0,1,80.14,37Z" transform="translate(0 0)"/><path class="cls-9" d="M68.53,22.25l7.88-5-3.32-7.08C74,11.68,78.33,18.4,83,17.46a4.72,4.72,0,0,0,1-.3,3.45,3.45,0,0,1-1,.56,2.88,2.88,0,0,1-1.27.18c-.71,0-4.17,1-13.11,4.35" transform="translate(0 0)"/><path class="cls-11" d="M68.53,22.25l7.88-5-3.32-7.08C74,11.68,78.33,18.4,83,17.46a4.72,4.72,0,0,0,1-.3,3.45,3.45,0,0,1-1,.56,2.88,2.88,0,0,1-1.27.18C80.93,17.87,77.47,18.93,68.53,22.25Z" transform="translate(0 0)"/><path class="cls-9" d="M80.43,14.56a3,3,0,0,1,2.9.37,3.7,3.7,0,0,1,1.07,1.42,4.27,4.27,0,0,1,.37-2.07,3,3,0,0,1,1.76-1.63l-.27-.16c-2.08-1.09-4.71,1-5.83,2.07" transform="translate(0 0)"/><path class="cls-11" d="M80.43,14.56a3,3,0,0,1,2.9.37,3.7,3.7,0,0,1,1.07,1.42,4.27,4.27,0,0,1,.37-2.07,3,3,0,0,1,1.76-1.63l-.27-.16C84.18,11.4,81.55,13.54,80.43,14.56Z" transform="translate(0 0)"/><path class="cls-9" d="M64.25,12.87c-.35,3.88.35,6.88,1.75,7.46a1.59,1.59,0,0,0,1,0l1.09-.07a11.2,11.2,0,0,1-2.62-3.44,13.26,13.26,0,0,1-1.25-4" transform="translate(0 0)"/><path class="cls-11" d="M64.25,12.87c-.35,3.88.35,6.88,1.75,7.46a1.59,1.59,0,0,0,1,0l1.09-.07a11.2,11.2,0,0,1-2.62-3.44A13.26,13.26,0,0,1,64.25,12.87Z" transform="translate(0 0)"/><path class="cls-12" d="M28.77,24.54a12,12,0,0,0,3.8-2.34,13.77,13.77,0,0,0,2.11-2.44,6.14,6.14,0,0,1-.29,1.74,5.77,5.77,0,0,1-1.17,2.09,5.88,5.88,0,0,1-2.11.95,5.3,5.3,0,0,1-2.34,0" transform="translate(0 0)"/><path class="cls-13" d="M37.82,13.16l4.75-6.25c3.38,3.29,4.34,4.55,4.18,4.82s-1.32-.48-1.7.06c0,.08-.14.26,0,1.2s.31,1.22.44,1.87a8.66,8.66,0,0,1,.07,2.3c-.07,1.35-.11,2-.4,2.21s-1-.31-1.2-.47a2.85,2.85,0,0,1-1-2.52c.1-.42.32-.64.29-1.13s-.8-.35-1.1.08c-.46.67-.46,1.17-1.16,2.26-.3.46-.75,1.16-1.25,1.09s-.93-1.21-1-1.52a5.12,5.12,0,0,1-.18-1.52c0-1,.24-1.3,0-1.76a1.31,1.31,0,0,0-.82-.72" transform="translate(0 0)"/><path class="cls-13" d="M81.82,12.19l8.14-5,6.71,5.25a2.87,2.87,0,0,0-2.23,0,5.44,5.44,0,0,0-2.11,2.12c-.29.41-.42.67-.55.87a6,6,0,0,1-3.54,2.47,1,1,0,0,1-.83-.19c-.52-.46-.42-1.53-.37-2,.12-1.38.68-1.92.43-2.83a1.71,1.71,0,0,0-.29-.62,10.49,10.49,0,0,0-1.64-.29,10.86,10.86,0,0,0-3.72.29" transform="translate(0 0)"/><path class="cls-13" d="M55.68,10.21,67,0l10.9,10.56a30,30,0,0,1,1.48,3.06c.4,1,.94,2.29.71,2.5s-.89-.51-1.26-.87-.47-.51-.93-1.05l-.51-.6c-.31-.37-.91-1.1-1.52-1.94s-.53-.82-1.2-1.76S73.6,8.5,73,8.34a1.72,1.72,0,0,0-.88,0,2.14,2.14,0,0,0-.55,1,3.61,3.61,0,0,0,.11,1.5A12.57,12.57,0,0,1,72,13.47a8.08,8.08,0,0,0,0,1.3,4.83,4.83,0,0,1,0,1,.6.6,0,0,1-.88.39A8.65,8.65,0,0,1,69.2,12.9a13.69,13.69,0,0,0-1.09-2.34,7.87,7.87,0,0,0-.79-1c-.76-.8-2.14-1.91-2.44-1.58s.55,1.55,1.58,4.85c.2.61.68,2.2.42,2.36-.09.06-.34-.14-.85-.54a2.38,2.38,0,0,1-.44-.39,2.58,2.58,0,0,1-.33-1.11,2.3,2.3,0,0,0-1.1-1.43.75.75,0,0,0-.71.06c-.32.26-.16.73-.38,1.44a3.69,3.69,0,0,1-1.48,1.82c-.43.33-.65.49-.8.41-.49-.24-.64-2.33.14-3.73a16.83,16.83,0,0,0,1.15-2c.25-.54.33-.82.24-1-.19-.4-.92-.3-1.31-.25a6.26,6.26,0,0,0-2.27.87,7.42,7.42,0,0,1-3.06.87" transform="translate(0 0)"/></g><polygon class="cls-4" points="5.16 46.06 0 51 131.81 51 127.23 46.06 5.16 46.06"/><g class="cls-14"><path class="cls-4" d="M98.34,46.06H220.42a51.14,51.14,0,0,0-6.3-11.73,43.62,43.62,0,0,0-9.45-9.62h-89A42.44,42.44,0,0,0,105,34.58a50.12,50.12,0,0,0-6.62,11.48" transform="translate(0 0)"/><path class="cls-4" d="M115.23,25l13.64-9.58a31.4,31.4,0,0,0,4-4.35,33.48,33.48,0,0,0,2.57-3.93q2.77,2.65,5.57,5.4c.74.73,1.47,1.45,2.19,2.18L160.14.2c2.9,2.74,5,4.7,6.55,6.09a48.76,48.76,0,0,1,5.5,5.66c.43.52.78,1,1,1.28L183,7.5c3.47,2.3,7.09,4.88,10.81,7.75,3.93,3,7.55,6.05,10.88,9a30,30,0,0,1-1.75,3,31.3,31.3,0,0,1-8.47,8.34,38.86,38.86,0,0,1-4.72,2.91,49.17,49.17,0,0,1-6.52,2.65c-1.68.58-4.23,1.47-6.87,2.17a67,67,0,0,1-16.65,2,64.12,64.12,0,0,1-15.11-1.83c-7.13-1.76-19.13-4.93-27.9-16.43-.65-.86-1.16-1.6-1.46-2" transform="translate(0 0)"/><polygon class="cls-5" points="142.94 15.12 149.97 22.63 155.02 19.76 160 24.67 188.26 18.78 202.12 24.67 204.83 24.59 183.14 7.17 173.21 13.23 160.2 0 142.94 15.12"/><path class="cls-4" d="M151.74,11a33.41,33.41,0,0,0,.13,3.76,32.21,32.21,0,0,0,1,5.66,5.37,5.37,0,0,1-1.68-2.12,6.37,6.37,0,0,1-.56-2.59,9.79,9.79,0,0,1,.12-1.93,9,9,0,0,1,1-2.78" transform="translate(0 0)"/><polygon class="cls-6" points="161.09 24.39 180.15 19.87 187.23 14.48 192.78 20.43 200.74 23.95 193.58 24.39 161.09 24.39"/><path class="cls-7" d="M130.73,29.43a37.46,37.46,0,0,0,12,3.58,35.83,35.83,0,0,0,6.19.2,2.71,2.71,0,0,0,1.92-.72,3.63,3.63,0,0,0,1-1.5l11.91,2.54-11.39.33c-3.68,1.16-12.69,3.33-19.66-2.54a17.89,17.89,0,0,1-1.92-1.89" transform="translate(0 0)"/><path class="cls-8" d="M159.92,37.38,175,30.27a66.82,66.82,0,0,0,8.05.07c6.37-.33,8.55-1.35,9.64-2a16.33,16.33,0,0,0,3.83-2.93,27.93,27.93,0,0,1-3.07,3.13,26.31,26.31,0,0,1-5.36,3.65l-28.15,5.15" transform="translate(0 0)"/><polygon class="cls-9" points="129.59 16.35 127.07 25.41 118.19 26.06 129.59 16.35"/><polygon class="cls-9" points="139.22 25.54 139.83 11.79 151.11 23.85 156.37 21.57 161.02 25.54 156.09 23.33 147.71 32.71 143.11 31.8 142.24 27.17 139.22 25.54"/><polygon class="cls-10" points="141.19 15.7 147.77 30.62 152.91 24.5 149.14 24.56 141.19 15.7"/><polygon class="cls-9" points="145.03 15.12 150.67 21.21 147.85 15.12 149.79 10.55 145.03 15.12"/><polygon class="cls-11" points="145.03 15.12 150.67 21.21 147.85 15.12 149.79 10.55 145.03 15.12"/><polygon class="cls-9" points="152.31 30.23 177.78 20.2 181.06 21.7 186.54 13.16 195.9 22.74 188.18 28.41 174.55 26.58 164.69 32.71 152.31 30.23"/><polygon class="cls-10" points="161.02 29 177.89 24.3 184.9 26.06 190.54 21.63 186.32 16.35 183.75 23.59 177.61 21.21 161.02 29"/><polygon points="190.04 12.68 202.53 25.8 204.83 24.59 190.04 12.68"/><polygon class="cls-11" points="190.04 12.68 202.53 25.8 204.83 24.59 190.04 12.68"/><path class="cls-9" d="M128.67,28.63a23.72,23.72,0,0,0,4-4.95,14.3,14.3,0,0,0,1.64-3.35c.31-1,.64-2.42.88-3.47.09-.41.16-.76.21-1a4.75,4.75,0,0,0,.63,2.21,3.57,3.57,0,0,0,1.09,1.17L129.59,28l-.92.61" transform="translate(0 0)"/><path class="cls-11" d="M128.67,28.63a23.72,23.72,0,0,0,4-4.95,14.3,14.3,0,0,0,1.64-3.35c.31-1,.64-2.42.88-3.47.09-.41.16-.76.21-1a4.75,4.75,0,0,0,.63,2.21,3.57,3.57,0,0,0,1.09,1.17L129.59,28Z" transform="translate(0 0)"/><path class="cls-9" d="M124.22,29c.76.24,2.07.64,3.69,1.16,5.58,1.78,11,3.69,16.28,4.38a10.31,10.31,0,0,0,5.22-.52,10.79,10.79,0,0,0,2.41-1.3l11.24.82-7.23,4.87c-6-1.23-11.06-2.24-16.06-3.22A37.21,37.21,0,0,1,127.39,31a34.64,34.64,0,0,1-3.17-2" transform="translate(0 0)"/><path class="cls-11" d="M124.22,29c.76.24,2.07.64,3.69,1.16,5.58,1.78,11,3.69,16.28,4.38a10.31,10.31,0,0,0,5.22-.52,10.79,10.79,0,0,0,2.41-1.3l11.24.82-7.23,4.87c-6-1.23-11.06-2.24-16.06-3.22A37.21,37.21,0,0,1,127.39,31,34.64,34.64,0,0,1,124.22,29Z" transform="translate(0 0)"/><path class="cls-9" d="M155.69,39.22l15.66-6.95,14.2.22a19.43,19.43,0,0,0,7.71-2,22,22,0,0,0,4.85-3.26,29.4,29.4,0,0,1-10.26,7.86A25,25,0,0,1,173.32,37l-17.63,2.21" transform="translate(0 0)"/><path class="cls-11" d="M155.69,39.22l15.66-6.95,14.2.22a19.43,19.43,0,0,0,7.71-2,22,22,0,0,0,4.85-3.26,29.4,29.4,0,0,1-10.26,7.86A25,25,0,0,1,173.32,37Z" transform="translate(0 0)"/><path class="cls-9" d="M161.71,22.25l7.89-5-3.32-7.08c.91,1.47,5.24,8.19,9.85,7.25a4.53,4.53,0,0,0,1-.3,3.52,3.52,0,0,1-1,.56,2.9,2.9,0,0,1-1.27.18c-.71,0-4.17,1-13.12,4.35" transform="translate(0 0)"/><path class="cls-11" d="M161.71,22.25l7.89-5-3.32-7.08c.91,1.47,5.24,8.19,9.85,7.25a4.53,4.53,0,0,0,1-.3,3.52,3.52,0,0,1-1,.56,2.9,2.9,0,0,1-1.27.18C174.12,17.87,170.66,18.93,161.71,22.25Z" transform="translate(0 0)"/><path class="cls-9" d="M173.61,14.56a3,3,0,0,1,2.9.37,3.74,3.74,0,0,1,1.08,1.42,4.15,4.15,0,0,1,.37-2.07,3.07,3.07,0,0,1,1.75-1.63l-.27-.16c-2.07-1.09-4.71,1-5.83,2.07" transform="translate(0 0)"/><path class="cls-11" d="M173.61,14.56a3,3,0,0,1,2.9.37,3.74,3.74,0,0,1,1.08,1.42,4.15,4.15,0,0,1,.37-2.07,3.07,3.07,0,0,1,1.75-1.63l-.27-.16C177.37,11.4,174.73,13.54,173.61,14.56Z" transform="translate(0 0)"/><path class="cls-9" d="M157.44,12.87c-.36,3.88.35,6.88,1.74,7.46a1.59,1.59,0,0,0,1,0l1.1-.07a11.19,11.19,0,0,1-2.63-3.44,13.18,13.18,0,0,1-1.24-4" transform="translate(0 0)"/><path class="cls-11" d="M157.44,12.87c-.36,3.88.35,6.88,1.74,7.46a1.59,1.59,0,0,0,1,0l1.1-.07a11.19,11.19,0,0,1-2.63-3.44A13.18,13.18,0,0,1,157.44,12.87Z" transform="translate(0 0)"/><path class="cls-12" d="M122,24.54a12,12,0,0,0,3.8-2.34,13.87,13.87,0,0,0,2.12-2.44,6.52,6.52,0,0,1-.29,1.74,5.77,5.77,0,0,1-1.17,2.09,5.86,5.86,0,0,1-2.12.95,5.31,5.31,0,0,1-2.34,0" transform="translate(0 0)"/><path class="cls-13" d="M131,13.16l4.75-6.25c3.37,3.29,4.33,4.55,4.18,4.82s-1.33-.48-1.7.06c-.06.08-.15.26,0,1.2a18.31,18.31,0,0,0,.44,1.87,8.66,8.66,0,0,1,.07,2.3c-.07,1.35-.11,2-.4,2.21s-1-.31-1.21-.47a2.88,2.88,0,0,1-.95-2.52c.1-.42.33-.64.3-1.13s-.8-.35-1.1.08c-.46.67-.47,1.17-1.17,2.26-.29.46-.74,1.16-1.24,1.09s-.93-1.21-1-1.52a4.8,4.8,0,0,1-.18-1.52c0-1,.24-1.3.05-1.76a1.31,1.31,0,0,0-.82-.72" transform="translate(0 0)"/><path class="cls-13" d="M175,12.19l8.14-5,6.72,5.25a2.86,2.86,0,0,0-2.23,0,5.44,5.44,0,0,0-2.11,2.12c-.29.41-.43.67-.55.87a6.08,6.08,0,0,1-3.54,2.47,1,1,0,0,1-.84-.19c-.51-.46-.41-1.53-.37-2,.13-1.38.68-1.92.44-2.83a2.12,2.12,0,0,0-.29-.62,10.74,10.74,0,0,0-5.37,0" transform="translate(0 0)"/><path class="cls-13" d="M148.86,10.21,160.2,0l10.9,10.56a30.3,30.3,0,0,1,1.47,3.06c.41,1,1,2.29.72,2.5s-.9-.51-1.26-.87-.48-.51-.93-1.05c-.26-.29-.45-.52-.52-.6-.3-.37-.9-1.1-1.51-1.94s-.53-.82-1.21-1.76-1.07-1.4-1.64-1.56a1.69,1.69,0,0,0-.87,0,2.06,2.06,0,0,0-.55,1,3.45,3.45,0,0,0,.11,1.5,11.92,11.92,0,0,1,.23,2.65,9.42,9.42,0,0,0,0,1.3,4.83,4.83,0,0,1,0,1,.59.59,0,0,1-.87.39,8.65,8.65,0,0,1-1.88-3.26,13,13,0,0,0-1.1-2.34,7.52,7.52,0,0,0-.78-1c-.76-.8-2.14-1.91-2.45-1.58s.56,1.55,1.59,4.85c.19.61.67,2.2.42,2.36-.09.06-.35-.14-.86-.54a2.38,2.38,0,0,1-.44-.39,2.42,2.42,0,0,1-.32-1.11,2.33,2.33,0,0,0-1.1-1.43.75.75,0,0,0-.71.06c-.32.26-.17.73-.39,1.44a3.63,3.63,0,0,1-1.47,1.82c-.43.33-.65.49-.81.41-.49-.24-.63-2.33.15-3.73a17.16,17.16,0,0,0,1.14-2c.25-.54.34-.82.24-1-.18-.4-.91-.3-1.31-.25a6.19,6.19,0,0,0-2.26.87,7.42,7.42,0,0,1-3.07.87" transform="translate(0 0)"/></g><polygon class="cls-4" points="98.34 46.06 93.19 51 225 51 220.42 46.06 98.34 46.06"/><g class="cls-15"><path class="cls-4" d="M54.7,46.06H176.77a50.75,50.75,0,0,0-6.3-11.73A43.84,43.84,0,0,0,161,24.71H72a42.44,42.44,0,0,0-10.69,9.87A50,50,0,0,0,54.7,46.06" transform="translate(0 0)"/><path class="cls-4" d="M71.59,25l13.64-9.58a32.69,32.69,0,0,0,4-4.35A33.48,33.48,0,0,0,91.8,7.15c1.85,1.77,3.7,3.57,5.57,5.4l2.19,2.18Q108,7.46,116.5.2c2.89,2.74,5,4.7,6.55,6.09a48.76,48.76,0,0,1,5.5,5.66c.43.52.78,1,1,1.28l9.78-5.73q5.21,3.45,10.81,7.75c3.92,3,7.55,6.05,10.88,9-.39.74-1,1.79-1.75,3a31.58,31.58,0,0,1-8.47,8.34,39.66,39.66,0,0,1-4.72,2.91,49.67,49.67,0,0,1-6.53,2.65c-1.67.58-4.22,1.47-6.86,2.17a67.19,67.19,0,0,1-16.65,2A64,64,0,0,1,101,43.48c-7.13-1.76-19.14-4.93-27.9-16.43-.66-.86-1.16-1.6-1.46-2" transform="translate(0 0)"/><polygon class="cls-5" points="99.3 15.12 106.32 22.63 111.38 19.76 116.36 24.67 144.62 18.78 158.47 24.67 161.19 24.59 139.5 7.17 129.57 13.23 116.55 0 99.3 15.12"/><path class="cls-4" d="M108.1,11a31.2,31.2,0,0,0,.13,3.76,31.31,31.31,0,0,0,1,5.66,5.37,5.37,0,0,1-1.68-2.12,6.6,6.6,0,0,1-.57-2.59,9.16,9.16,0,0,1,.13-1.93A9,9,0,0,1,108.1,11" transform="translate(0 0)"/><polygon class="cls-6" points="117.44 24.39 136.5 19.87 143.58 14.48 149.13 20.43 157.09 23.95 149.94 24.39 117.44 24.39"/><path class="cls-7" d="M87.09,29.43a37.38,37.38,0,0,0,12,3.58,35.8,35.8,0,0,0,6.19.2,2.69,2.69,0,0,0,1.91-.72,3.52,3.52,0,0,0,1-1.5l11.91,2.54-11.39.33C105,35,96,37.19,89,31.32a17.84,17.84,0,0,1-1.91-1.89" transform="translate(0 0)"/><path class="cls-8" d="M116.28,37.38l15.06-7.11a66.82,66.82,0,0,0,8,.07c6.36-.33,8.54-1.35,9.63-2a16.64,16.64,0,0,0,3.84-2.93,28.83,28.83,0,0,1-3.07,3.13,26.34,26.34,0,0,1-5.37,3.65l-28.14,5.15" transform="translate(0 0)"/><polygon class="cls-9" points="85.94 16.35 83.42 25.41 74.55 26.06 85.94 16.35"/><polygon class="cls-9" points="95.58 25.54 96.18 11.79 107.46 23.85 112.72 21.57 117.38 25.54 112.45 23.33 104.07 32.71 99.47 31.8 98.59 27.17 95.58 25.54"/><polygon class="cls-10" points="97.55 15.7 104.12 30.62 109.27 24.5 105.49 24.56 97.55 15.7"/><polygon class="cls-9" points="101.38 15.12 107.03 21.21 104.2 15.12 106.15 10.55 101.38 15.12"/><polygon class="cls-11" points="101.38 15.12 107.03 21.21 104.2 15.12 106.15 10.55 101.38 15.12"/><polygon class="cls-9" points="108.67 30.23 134.13 20.2 137.42 21.7 142.9 13.16 152.26 22.74 144.54 28.41 130.9 26.58 121.04 32.71 108.67 30.23"/><polygon class="cls-10" points="117.38 29 134.24 24.3 141.25 26.06 146.89 21.63 142.68 16.35 140.1 23.59 133.97 21.21 117.38 29"/><polygon points="146.4 12.68 158.88 25.8 161.19 24.59 146.4 12.68"/><polygon class="cls-11" points="146.4 12.68 158.88 25.8 161.19 24.59 146.4 12.68"/><path class="cls-9" d="M85,28.63a23.29,23.29,0,0,0,4-4.95,14.32,14.32,0,0,0,1.65-3.35c.31-1,.64-2.42.87-3.47.1-.41.17-.76.22-1a4.71,4.71,0,0,0,.62,2.21,3.68,3.68,0,0,0,1.1,1.17L85.94,28l-.91.61" transform="translate(0 0)"/><path class="cls-11" d="M85,28.63a23.29,23.29,0,0,0,4-4.95,14.32,14.32,0,0,0,1.65-3.35c.31-1,.64-2.42.87-3.47.1-.41.17-.76.22-1a4.71,4.71,0,0,0,.62,2.21,3.68,3.68,0,0,0,1.1,1.17L85.94,28Z" transform="translate(0 0)"/><path class="cls-9" d="M80.57,29c.77.24,2.07.64,3.69,1.16,5.58,1.78,11,3.69,16.28,4.38a10.3,10.3,0,0,0,5.22-.52,10.57,10.57,0,0,0,2.41-1.3l11.25.82-7.23,4.87c-6-1.23-11.07-2.24-16.06-3.22A37.14,37.14,0,0,1,83.75,31a35,35,0,0,1-3.18-2" transform="translate(0 0)"/><path class="cls-11" d="M80.57,29c.77.24,2.07.64,3.69,1.16,5.58,1.78,11,3.69,16.28,4.38a10.34,10.34,0,0,0,5.23-.52,10.68,10.68,0,0,0,2.4-1.3l11.25.82-7.23,4.87c-6-1.23-11.07-2.24-16.06-3.22A37.14,37.14,0,0,1,83.75,31,35,35,0,0,1,80.57,29Z" transform="translate(0 0)"/><path class="cls-9" d="M112,39.22l15.67-6.95,14.2.22a19.42,19.42,0,0,0,7.7-2,22.1,22.1,0,0,0,4.86-3.26,29.49,29.49,0,0,1-10.26,7.86A25,25,0,0,1,129.68,37L112,39.22" transform="translate(0 0)"/><path class="cls-11" d="M112,39.22l15.67-6.95,14.2.22a19.42,19.42,0,0,0,7.7-2,22.1,22.1,0,0,0,4.86-3.26,29.49,29.49,0,0,1-10.26,7.86A25,25,0,0,1,129.68,37Z" transform="translate(0 0)"/><path class="cls-9" d="M118.07,22.25l7.88-5-3.32-7.08c.92,1.47,5.24,8.19,9.86,7.25a4.53,4.53,0,0,0,.95-.3,3.45,3.45,0,0,1-1,.56,2.85,2.85,0,0,1-1.26.18c-.72,0-4.17,1-13.12,4.35" transform="translate(0 0)"/><path class="cls-11" d="M118.07,22.25l7.88-5-3.32-7.08c.92,1.47,5.24,8.19,9.86,7.25a4.53,4.53,0,0,0,.95-.3,3.45,3.45,0,0,1-1,.56,2.85,2.85,0,0,1-1.26.18C130.47,17.87,127,18.93,118.07,22.25Z" transform="translate(0 0)"/><path class="cls-9" d="M130,14.56a3,3,0,0,1,2.9.37,3.7,3.7,0,0,1,1.07,1.42,4.19,4.19,0,0,1,.38-2.07,3.07,3.07,0,0,1,1.75-1.63l-.27-.16c-2.08-1.09-4.71,1-5.83,2.07" transform="translate(0 0)"/><path class="cls-11" d="M130,14.56a3,3,0,0,1,2.9.37,3.7,3.7,0,0,1,1.07,1.42,4.19,4.19,0,0,1,.38-2.07,3.07,3.07,0,0,1,1.75-1.63l-.27-.16C133.72,11.4,131.09,13.54,130,14.56Z" transform="translate(0 0)"/><path class="cls-9" d="M113.8,12.87c-.36,3.88.35,6.88,1.74,7.46a1.59,1.59,0,0,0,1,0l1.1-.07A11.19,11.19,0,0,1,115,16.85a12.9,12.9,0,0,1-1.24-4" transform="translate(0 0)"/><path class="cls-11" d="M113.8,12.87c-.36,3.88.35,6.88,1.74,7.46a1.59,1.59,0,0,0,1,0l1.1-.07A11.19,11.19,0,0,1,115,16.85,12.9,12.9,0,0,1,113.8,12.87Z" transform="translate(0 0)"/><path class="cls-12" d="M78.31,24.54a12,12,0,0,0,3.8-2.34,13.37,13.37,0,0,0,2.11-2.44,6.14,6.14,0,0,1-.29,1.74,5.77,5.77,0,0,1-1.17,2.09,5.88,5.88,0,0,1-2.11.95,5.3,5.3,0,0,1-2.34,0" transform="translate(0 0)"/><path class="cls-13" d="M87.36,13.16l4.75-6.25c3.38,3.29,4.34,4.55,4.18,4.82s-1.32-.48-1.7.06c0,.08-.14.26,0,1.2s.31,1.22.44,1.87a8.66,8.66,0,0,1,.07,2.3c-.06,1.35-.1,2-.4,2.21s-1-.31-1.2-.47a2.85,2.85,0,0,1-1-2.52c.1-.42.32-.64.29-1.13s-.8-.35-1.09.08c-.46.67-.47,1.17-1.17,2.26-.3.46-.74,1.16-1.24,1.09s-.93-1.21-1-1.52a5.48,5.48,0,0,1-.18-1.52c0-1,.24-1.3.06-1.76a1.35,1.35,0,0,0-.83-.72" transform="translate(0 0)"/><path class="cls-13" d="M131.36,12.19l8.14-5,6.72,5.25a2.86,2.86,0,0,0-2.23,0,5.4,5.4,0,0,0-2.12,2.12c-.28.41-.42.67-.55.87a6,6,0,0,1-3.54,2.47,1,1,0,0,1-.83-.19c-.51-.46-.42-1.53-.37-2,.12-1.38.68-1.92.44-2.83a1.87,1.87,0,0,0-.3-.62,10.49,10.49,0,0,0-1.64-.29,10.86,10.86,0,0,0-3.72.29" transform="translate(0 0)"/><path class="cls-13" d="M105.22,10.21,116.55,0l10.9,10.56a30,30,0,0,1,1.48,3.06c.41,1,.94,2.29.71,2.5s-.89-.51-1.26-.87-.47-.51-.93-1.05l-.51-.6c-.31-.37-.91-1.1-1.52-1.94s-.53-.82-1.2-1.76-1.08-1.4-1.64-1.56a1.73,1.73,0,0,0-.88,0,2.14,2.14,0,0,0-.55,1,3.79,3.79,0,0,0,.11,1.5,12.57,12.57,0,0,1,.24,2.65,9.42,9.42,0,0,0,0,1.3,4.83,4.83,0,0,1,0,1,.6.6,0,0,1-.88.39,8.65,8.65,0,0,1-1.88-3.26,13,13,0,0,0-1.09-2.34,7,7,0,0,0-.79-1c-.75-.8-2.14-1.91-2.44-1.58S115,9.54,116,12.84c.19.61.67,2.2.42,2.36s-.35-.14-.86-.54a2.38,2.38,0,0,1-.44-.39,2.58,2.58,0,0,1-.33-1.11,2.3,2.3,0,0,0-1.1-1.43.75.75,0,0,0-.71.06c-.31.26-.16.73-.38,1.44a3.64,3.64,0,0,1-1.48,1.82c-.43.33-.64.49-.8.41-.49-.24-.64-2.33.14-3.73a16.83,16.83,0,0,0,1.15-2c.25-.54.34-.82.24-1-.19-.4-.92-.3-1.31-.25a6.26,6.26,0,0,0-2.27.87,7.37,7.37,0,0,1-3.06.87" transform="translate(0 0)"/></g><polygon class="cls-4" points="54.7 46.06 49.54 51 181.36 51 176.77 46.06 54.7 46.06"/></g></g><text class="cls-16" transform="translate(0 50.02) scale(0.56 1)"><tspan class="cls-17">F</tspan><tspan class="cls-18" x="16.02" y="0">O</tspan><tspan class="cls-19" x="35.34" y="0">O</tspan><tspan class="cls-20" x="54.47" y="0">T</tspan><tspan class="cls-21" x="69.93" y="0">HIL</tspan><tspan class="cls-22" x="112.66" y="0">L</tspan><tspan x="129.04" y="0">S </tspan><tspan class="cls-23" x="150.93" y="0">S</tspan><tspan class="cls-18" x="166.66" y="0">AF</tspan><tspan class="cls-24" x="201.4" y="0">E</tspan><tspan class="cls-25" x="218.85" y="0">T</tspan><tspan x="235.14" y="0">Y SO</tspan><tspan class="cls-26" x="292.43" y="0">L</tspan><tspan class="cls-27" x="308.29" y="0">U</tspan><tspan class="cls-28" x="327.08" y="0">T</tspan><tspan class="cls-29" x="342.54" y="0">IONS</tspan></text></svg>